<?xml version="1.0" encoding="iso-8859-1"?>
<!-- Generator: Adobe Illustrator 16.0.0, SVG Export Plug-In . SVG Version: 6.00 Build 0)  -->
<!DOCTYPE svg PUBLIC "-//W3C//DTD SVG 1.1//EN" "http://www.w3.org/Graphics/SVG/1.1/DTD/svg11.dtd">
<svg version="1.1" id="Capa_1" xmlns="http://www.w3.org/2000/svg" xmlns:xlink="http://www.w3.org/1999/xlink" x="0px" y="0px"
	 width="595.813px" height="595.813px" viewBox="0 0 595.813 595.813" style="enable-background:new 0 0 595.813 595.813;"
	 xml:space="preserve">
<g>
	<g>
		<path d="M390.475,366.854l-76.521,63.815c0,0,0,0-0.037,0c-15.963,13.338-32.018,0.072-32.045,0.018l-83.345-69.493
			c-4.502-3.898-20.021-19.189-20.021-46.093V202.995c0.318-10.471,4.429-43.808,44.353-43.808h148.327
			c0,0,46.102,1.377,46.102,45.993v108.085C417.242,318.418,415.733,345.794,390.475,366.854L390.475,366.854z M444.454,316.773
			V184.069c0-54.747-56.577-56.437-56.577-56.437H205.813c-49.019,0-54.083,40.909-54.456,53.784v137.61
			c0,33,19.044,51.78,24.591,56.583l102.28,85.298c0.045,0.055,19.734,16.354,39.36,0c0.027,0,0.027-0.019,0.027-0.019
			l93.921-78.338C442.545,356.696,444.399,323.106,444.454,316.773L444.454,316.773z"/>
		<path d="M576.226,39.345l-8.586-8.595c-5.896-5.669-35.498-31.273-66.027-0.754l-52.57,52.575c0,0-12.812,15.251,4.815,34.976
			c0.382,0.427,0.581,0.75,0.891,1.149c9.34,9.831,16.3,23.951,16.3,44.698v39.655c0,0,3.688,21.692,25.395,0l5.116-5.12
			l77.157-77.139C578.698,120.8,618.803,81.122,576.226,39.345L576.226,39.345z"/>
		<path d="M101.489,205.167c0.313,0.281,23.287,21.016,23.287-8.473v-36.425c0.264-9.299,2.785-30.842,17.817-46.27l-0.095-0.091
			c0,0,0.459-0.4,1.09-1.09c0,0,0.027-0.009,0.027-0.018c3.739-3.961,15.005-18.367-1.118-34.49l0,0L94.202,30.004
			c-30.533-30.528-60.14-4.924-66.014,0.754l-8.595,8.586c-42.585,41.777-2.485,81.455-2.485,81.455l77.153,77.139L101.489,205.167
			L101.489,205.167z"/>
		<path d="M193.874,423.128l-3.421-2.853c-2.785-2.254-24.218-18.026-52.021,7.805c0,0,0,0,0,0.019l-66.995,66.99
			c-3.825,3.87-18.731,19.961-25.282,40.368l-10.449,32.745c-5.265,16.437,11.639,11.657,11.639,11.657h0.032l30.606-9.804
			c22.483-7.205,42.808-26.249,42.808-26.249l70.824-70.833C218.511,446.079,197.063,425.872,193.874,423.128L193.874,423.128z"/>
		<path d="M549.66,535.457c-6.561-20.397-21.471-36.498-25.286-40.368l-64.347-64.365c-25.358-25.358-44.229-17.953-52.289-12.447
			l-4.961,4.134l-0.019,0.019l-0.436,0.363c-3.344,2.862-24.923,23.242,5.033,53.325l67.653,67.662c0,0,20.335,19.054,42.813,26.259
			l30.61,9.804h0.027c0,0,16.891,4.779,11.647-11.657L549.66,535.457L549.66,535.457z"/>
	</g>
</g>
<g>
</g>
<g>
</g>
<g>
</g>
<g>
</g>
<g>
</g>
<g>
</g>
<g>
</g>
<g>
</g>
<g>
</g>
<g>
</g>
<g>
</g>
<g>
</g>
<g>
</g>
<g>
</g>
<g>
</g>
</svg>
